<svg class="c-logo  c-site-header__logo__inner" xmlns="http://www.w3.org/2000/svg" width="176.07" height="34.22" viewBox="0 0 176.07 34.22">

<title>Brandwatch</title>

<circle cx="27.53" cy="14.29" r="2.94" transform="translate(7.74 38.18) rotate(-77.81)" fill="#ff8f00"></circle>
<circle cx="19.05" cy="15.92" r="4.49" transform="matrix(0.21, -0.98, 0.98, 0.21, -0.54, 31.18)" fill="#f46b00"></circle>
<circle cx="26.44" cy="21.77" r="3.77" transform="translate(-0.42 43.01) rotate(-77.81)" fill="#ff586f"></circle>
<circle cx="36.35" cy="17.97" r="2.46" transform="translate(11.11 49.7) rotate(-77.81)" fill="#8ea53c"></circle>
<circle cx="14.39" cy="24.57" r="2.1" transform="translate(-12.67 33.44) rotate(-77.81)" fill="#f6be00"></circle>
<circle cx="23.31" cy="9.62" r="1.92" transform="translate(8.98 30.37) rotate(-77.81)" fill="#f6be00"></circle>
<circle cx="11.21" cy="1.14" r="1.14" transform="translate(7.73 11.86) rotate(-77.81)" fill="#9c7cb6"></circle>
<circle cx="1.08" cy="28.95" r="1.08" transform="translate(-27.44 23.89) rotate(-77.81)" fill="#969c9e"></circle>
<circle cx="22.26" cy="32.72" r="1.5" transform="translate(-14.43 47.57) rotate(-77.81)" fill="#008eb4"></circle>
<circle cx="9.68" cy="16.36" r="1.5" transform="translate(-8.35 22.37) rotate(-77.81)" fill="#5fc3e6"></circle>
<circle cx="20.05" cy="22.67" r="1.38" transform="translate(-6.34 37.48) rotate(-77.81)" fill="#f46b00"></circle>
<circle cx="33.92" cy="5.94" r="1.56" transform="translate(20.95 37.85) rotate(-77.81)" fill="#5fc3e6"></circle>
<circle cx="34.06" cy="26.88" r="1.26" transform="matrix(0.99, -0.16, 0.16, 0.99, -3.85, 5.78)" fill="#ff8f00"></circle>

<path class="c-logo__logotype" d="M55.43,10.82h0a5.55,5.55,0,0,0-3,1V6H50V19.44c0,3.38,2.2,5.75,5.37,5.75h0a5.2,5.2,0,0,0,4.29-2,8.17,8.17,0,0,0,1.51-5.24,7.84,7.84,0,0,0-1.51-5.11A5.24,5.24,0,0,0,55.43,10.82Zm3.46,7.11a6.41,6.41,0,0,1-.94,3.73,2.92,2.92,0,0,1-2.54,1.17c-2.08,0-3-1.71-3-3.4V16a3.14,3.14,0,0,1,3-2.81,2.93,2.93,0,0,1,2.53,1.16,6,6,0,0,1,.94,3.6Zm31.24-7.11c-3.29,0-5.26,2.11-5.26,5.65V25h2.35v-8.5c0-3,2-3.29,2.91-3.29S93,13.49,93,16.45V25H95.4V16.47C95.39,12.93,93.42,10.82,90.13,10.82ZM69.77,13.27a3.52,3.52,0,0,0-.87-.11c-.88,0-2.91.32-2.91,3.29V25H63.64V16.47c0-3.54,2-5.64,5.26-5.64a6.56,6.56,0,0,1,1.48.16Zm36.87-7.32v5.83a5.56,5.56,0,0,0-3-1h-.05a5.2,5.2,0,0,0-4.29,2,7.82,7.82,0,0,0-1.51,5.11,8.18,8.18,0,0,0,1.51,5.24,5.23,5.23,0,0,0,4.3,2h0c3.15,0,5.35-2.36,5.35-5.75V5.95Zm0,10v3.46c0,1.69-.93,3.4-3,3.4a2.93,2.93,0,0,1-2.54-1.16,6.34,6.34,0,0,1-.94-3.73,5.91,5.91,0,0,1,.94-3.6,2.89,2.89,0,0,1,2.53-1.16,3.1,3.1,0,0,1,3,2.79Zm50.89-2.81a3.43,3.43,0,0,1,2.24.76,2.4,2.4,0,0,1,.83,1.85l2.28-.12a4.5,4.5,0,0,0-1.58-3.52,5.7,5.7,0,0,0-3.77-1.31,5.23,5.23,0,0,0-4.33,2A8.09,8.09,0,0,0,151.7,18a8.05,8.05,0,0,0,1.51,5.18,5.25,5.25,0,0,0,4.33,2,5.69,5.69,0,0,0,3.77-1.31,4.57,4.57,0,0,0,1.58-3.55l-2.27-.13a2.47,2.47,0,0,1-.83,1.88,3.43,3.43,0,0,1-2.24.75A2.93,2.93,0,0,1,155,21.66a6.13,6.13,0,0,1-.94-3.67,6.14,6.14,0,0,1,.94-3.67,2.93,2.93,0,0,1,2.54-1.15Zm13.58-2.34a5,5,0,0,0-2.95.86l-.33.23V6H165.5v19h2.35V16.54a3.14,3.14,0,0,1,3.09-3.34c1.81,0,2.77,1.55,2.77,3.25v8.5h2.36V16.65C176.07,11.6,172.66,10.82,171.12,10.82Zm-21.5,11.86a1.45,1.45,0,0,1-1.8,0,1.9,1.9,0,0,1-.74-1.61V13.5h2.51V11.15h-2.51V8.37h-2.37v2.78H143.2V13.5h1.52V21a4,4,0,0,0,2.13,3.84,3.89,3.89,0,0,0,4.09-.44Zm-8.48-7.18a4.33,4.33,0,0,0-1.5-3.51,5.6,5.6,0,0,0-3.7-1.18A5.48,5.48,0,0,0,132.28,12a3.69,3.69,0,0,0-1.41,2.71l2.28.19a1.63,1.63,0,0,1,.66-1.12,3.38,3.38,0,0,1,2.13-.61,3.25,3.25,0,0,1,2.18.63,2.09,2.09,0,0,1,.67,1.7v1h-2.61a7.08,7.08,0,0,0-4.2.93,4.09,4.09,0,0,0-1.68,3.45c0,2.64,2.08,4.35,5.29,4.35a6.21,6.21,0,0,0,3.65-1.1l.08.87h1.83V15.51ZM138.79,20c0,2.13-1.73,2.89-3.21,2.89-.89,0-2.94-.19-2.94-2a1.84,1.84,0,0,1,.77-1.61,5.19,5.19,0,0,1,2.79-.45h2.58V20ZM82.27,15.51A4.33,4.33,0,0,0,80.77,12a5.61,5.61,0,0,0-3.7-1.18A5.48,5.48,0,0,0,73.41,12,3.69,3.69,0,0,0,72,14.7l2.28.19a1.63,1.63,0,0,1,.66-1.12,3.38,3.38,0,0,1,2.13-.61,3.25,3.25,0,0,1,2.18.63,2.09,2.09,0,0,1,.67,1.7v1H77.31a7.08,7.08,0,0,0-4.2.93,4.09,4.09,0,0,0-1.68,3.45c0,2.64,2.08,4.35,5.29,4.35a6.21,6.21,0,0,0,3.65-1.1l.08.87h1.83V15.51ZM79.92,20c0,2.13-1.73,2.89-3.21,2.89-.89,0-2.94-.19-2.94-2a1.84,1.84,0,0,1,.77-1.61,5.19,5.19,0,0,1,2.79-.45h2.58V20ZM127.22,11l-2.88,10-2.88-10h-2.22l-2.88,10-2.88-10h-2.22l4,13.9h2.22l2.88-10,2.88,10h2.22l4-13.9Z" fill="#4c4c4c"></path>

</svg>