<svg xmlns="http://www.w3.org/2000/svg" viewBox="0 0 344.9 86.6"><title>Forbes.ru</title><path d="M210.1,24.7a31.2,31.2,0,0,0-14.4,3.7c0-12.9.2-24.1.5-28.4L169.7,5.1V7.5l2.6.3c3.7.5,5.1,2.7,5.6,7.6.8,9.5.7,60.2,0,68.3a104.3,104.3,0,0,0,22.6,2.8c21,0,33.7-13,33.7-33.6C234.1,36.5,223.8,24.7,210.1,24.7Zm-9.2,57.7a29.4,29.4,0,0,1-4.5-.4c-.4-5.7-.7-29.2-.6-49.7a17.3,17.3,0,0,1,6.2-1c8.7,0,13.6,10.1,13.6,22.7C215.5,70.2,209.5,82.4,200.9,82.4ZM70.1,25.3l-4.1,1.1C62.3,14.4,56.6,7.6,45.9,7.6H32.1c-.6,7.7-.9,20.5-.8,33.8l9.3-.3c6.2-.2,8.7-4.8,10.2-11.5h3.5V57.8H50.8C49.3,51,46.7,46.4,40.5,46.2l-9.2-.3c.1,10.1.4,18.7.8,23.8.6,7.5,2.7,10.8,8,11.6l4.7.5v3.4H0V81.8l3.7-.5c5.3-.8,7.4-4.1,8-11.6,1-12.4,1.2-38.1,0-52.5C11.1,9.8,9,6.5,3.7,5.7L0,5.2V1.9H69.7ZM92.4,24C112.2,24,122,37.4,122,55.2S110.9,86.6,91.1,86.6,61.4,73.2,61.4,55.5,72.5,24,92.4,24Zm-1,3.8c-8.8,0-11.2,11.8-11.2,27.5s3.9,27.5,12,27.5,11.2-11.8,11.2-27.5S99.4,27.9,91.3,27.9ZM239,55.9c0-16.4,10.3-31.8,30.8-31.8,16.6,0,24.5,12.3,24.6,28.4H257.3c-.4,14.6,7,25.4,21.2,25.4,6.2,0,9.6-1.5,13.4-4.4l1.7,2.1c-4.1,5.7-12.7,11.1-24.1,11.1C251.6,86.6,239,74,239,55.9Zm18.5-7.5,18.6-.4c.1-8.2-1.2-20-7.9-20S257.6,39.1,257.4,48.3ZM342,42.5l-3,.8c-3.2-10.5-8.1-14.9-15.3-14.9-4.8,0-8.2,3.6-8.2,8.8s3.9,7.9,15.1,12.2,14.4,8.6,14.4,17c0,12.5-9.6,20.2-25.4,20.2a62.3,62.3,0,0,1-20.9-3.7l-.5-17.3,3-.8c4.3,12.1,10,16.5,17.5,16.5s9.9-4.5,9.9-9.3-2.7-7.5-12.8-11.1-16.2-7.5-16.2-18,9-18.9,23.9-18.9c6.9,0,13.5,1.2,17.9,3.2ZM167.2,42c-8-5.4-16.7-3-18.4-.1a264.5,264.5,0,0,0,.2,32c.4,4.9,1.9,7.1,5.6,7.6l4.8.3v3.4H122.5V81.8l2.6-.3c3.7-.5,5.1-2.7,5.6-7.6a256.3,256.3,0,0,0,0-34.5c-.4-4.9-1.9-7.1-5.6-7.6l-2.6-.3V29.1L149,24l-.3,13.8c6.2-14.2,18.4-16.1,25-12.1Z"/></svg>