<svg xmlns="http://www.w3.org/2000/svg" viewBox="0 0 156 17.896"><path fill="#6D6E71" d="M154 0c-1.104 0-2 .896-2 2 0 1.103.897 2 2 2 1.104 0 2-.897 2-2 0-1.104-.896-2-2-2m0 3.686c-.93 0-1.686-.757-1.686-1.687S153.07.31 154 .31c.93 0 1.688.756 1.688 1.686 0 .93-.758 1.686-1.688 1.686m-.096-3.118c.05.475.436.204.602.07.06-.047.13-.135.17-.158.027-.017.065-.005.082.027.012.047.02.108-.01.196-.04.1-.1.2-.133.26-.088.14-.176.26-.28.39-.17.21-.384.38-.56.58-.27.32-.424.8-.342 1.21.022.1.072.24.17.29.6.33 1.033-1.09.83-1.51-.027-.06-.082-.158-.158-.148-.375.063-.55 1.283-.314 1.37-.01.143-.24.23-.3-.033-.02-.095-.02-.19-.02-.287.01-.404.34-1.02.71-1.206.17-.09.41-.09.5.11.34.684-.56 1.953-1.34 1.84-.38-.06-.51-.42-.49-.76.02-.286.15-.55.3-.78.33-.463.85-.6 1.1-.963 0 0 .01-.01.01-.02s-.01-.02-.02-.01c-.03.02-.174.1-.273.11-.2.02-.31-.26-.344-.41-.01-.03-.01-.06-.04-.02-.1.13-.177.85-.275.887l-.396.154s-.017.005-.02-.02c-.05-.163.36-.745.47-.94.015-.03.11-.21.124-.22.03-.027.21-.07.248-.07"/><path fill="#211C1D" d="M8.954 5.64l5.702 8.798H9.11L5.723 8.813 4.625 9.97v4.468H0V.328h4.625v4.566L8.68.33h5.427L8.954 5.64zm15.964 3.566c0 3.757-2.547 5.52-5.84 5.52-3.29 0-5.838-1.8-5.838-5.312 0-3.564 2.35-5.548 5.82-5.548 3.625 0 5.858 2.137 5.858 5.328m-4.076 0c0-1.51-.686-2.587-1.724-2.587-1.39 0-1.803 1.43-1.803 2.587 0 1.94.725 2.78 1.763 2.78 1.098 0 1.763-.847 1.763-2.785m10.99.66l-1.79-5.68h-4.66v10.26h3.61V10.4l-.39-2.86h.08l2.19 6.896h1.92l2.19-6.896h.08l-.392 2.626v4.27h3.603V4.176H33.6l-1.78 5.7.013-.02zm13.48 0l-1.79-5.68h-4.66v10.26h3.61V10.4l-.39-2.86h.08l2.19 6.895h1.92l2.19-6.894h.08l-.394 2.63v4.27h3.61V4.17h-4.67l-1.78 5.7.01-.016zm18.63.35h-7.78c0 1.21.94 2.02 2.02 2.02.65 0 1.24-.3 1.53-.9h3.9c-.7 2.54-3.29 3.39-5.68 3.39-3.29 0-5.84-1.89-5.84-5.33 0-3.37 2.53-5.53 5.82-5.53 3.8 0 6.04 2.49 6.04 6.34m-5.88-3.86c-1.21 0-1.9.68-1.9 1.78h3.71c0-.94-.84-1.79-1.804-1.79m17.62 2.87c0 4.04-2.505 5.51-4.8 5.51-1.116 0-1.94-.45-2.627-1.318v4.51h-4.08V4.16h3.664v1.53h.04c.57-1.253 2.037-1.82 3.212-1.82 3.09 0 4.58 2.525 4.58 5.348m-7.505-.02c0 1.43.61 2.406 1.67 2.406 1.07 0 1.76-.923 1.76-2.334 0-1.627-.71-2.435-1.78-2.435-.98 0-1.65.98-1.65 2.352m13.563 2.78c-1.198 0-1.786-1.02-1.786-2.57 0-1.214.253-2.802 1.785-2.802.9 0 1.487.665 1.487 1.467h4.134c-.29-3.038-2.876-4.213-5.62-4.213-3.386 0-5.854 2.01-5.854 5.52 0 3.47 2.547 5.33 5.86 5.33 2.84 0 5.348-1.16 5.7-4.27h-4.11c-.117.8-.53 1.52-1.587 1.52m17.78 2.25v.19h-4.21l-.194-1.1c-1.16 1.076-2.337 1.39-3.86 1.39-1.945 0-3.67-.96-3.67-3.095 0-4.664 7.31-2.547 7.31-4.467 0-.744-.9-.843-1.333-.843-.57 0-1.335.12-1.43 1h-3.92c0-2.172 1.545-3.45 5.6-3.45 4.86 0 5.153 1.808 5.153 4.257v4.8c0 .59.02.88.55 1.313M94.9 9.847c-1.33.646-3.095.33-3.095 1.663 0 .51.49.86 1.294.86 1.43 0 1.8-.96 1.8-2.53m12.012-2.29h-3.02V4.16h-4.08v10.273h4.076v-3.86h3.02v3.86H111V4.17h-4.075V7.6v-.033zm15.38-3.427h-11.19v3h3.54v7.29h4.074V7.14h3.547V4.17l.03-.03zm0 10.266h4.15v-4.02h-4.15v4.03-.01zm10.17-8.18h-.04V4.17h-3.7v10.26h4.07v-3.54c0-2.21.84-2.995 2.503-2.995.274 0 .567.08.84.118v-4.07c-.174-.02-.35-.06-.53-.06-1.585 0-2.583.764-3.15 2.37m12.16-2.076v4.935c0 1.586-.37 2.466-1.544 2.466-.977 0-1.47-.45-1.47-1.86V4.18h-4.074v6.246c0 2.938 1.454 4.308 3.684 4.308 1.687 0 2.687-.393 3.7-1.802v1.507h3.78V4.17h-4.075.004z"/></svg>