<?xml version="1.0" encoding="UTF-8" standalone="no"?>
<svg width="163px" height="53px" viewBox="0 0 163 53" version="1.1" xmlns="http://www.w3.org/2000/svg" xmlns:xlink="http://www.w3.org/1999/xlink">
    <!-- Generator: Sketch 44.1 (41455) - http://www.bohemiancoding.com/sketch -->
    <title>logo_v2</title>
    <desc>Created with Sketch.</desc>
    <defs></defs>
    <g id="Page-1" stroke="none" stroke-width="1" fill="none" fill-rule="evenodd">
        <g id="logo_v2">
            <g id="Group-3" transform="translate(1.000000, 0.000000)">
                <g id="Group-2" transform="translate(57.000000, 2.000000)">
                    <g id="Group"></g>
                </g>
                <g id="bitcoin-logo-online-payment-brand-3978d8ba010efbbd" transform="translate(13.000000, 11.000000)"></g>
                <path d="M59.55,22.438 L67.982,22.438 C70.3846787,22.438 72.2433268,23.0216608 73.558,24.189 C74.8726732,25.3563392 75.53,26.8579908 75.53,28.694 C75.53,31.3233465 74.0226817,33.0573291 71.008,33.896 C72.5266743,34.1453346 73.750662,34.8253278 74.68,35.936 C75.609338,37.0466722 76.074,38.3273261 76.074,39.778 C76.074,41.5686756 75.377007,43.0533274 73.983,44.232 C72.588993,45.4106726 70.7246783,46 68.39,46 L59.55,46 L59.55,22.438 Z M62.644,24.92 L62.644,32.672 L67.846,32.672 C69.2740071,32.672 70.3903293,32.3263368 71.195,31.635 C71.9996707,30.9436632 72.402,30.0030059 72.402,28.813 C72.402,27.622994 71.9996707,26.6766702 71.195,25.974 C70.3903293,25.2713298 69.2740071,24.92 67.846,24.92 L62.644,24.92 Z M62.644,43.552 L68.22,43.552 C69.7160075,43.552 70.8889957,43.1780037 71.739,42.43 C72.5890043,41.6819963 73.014,40.6563398 73.014,39.353 C73.014,38.0496601 72.5550046,37.0240037 71.637,36.276 C70.7189954,35.5279963 69.5006743,35.154 67.982,35.154 L62.644,35.154 L62.644,43.552 Z M80.922,24.342 C80.3326637,24.342 79.8396686,24.138002 79.443,23.73 C79.0463314,23.321998 78.848,22.8233363 78.848,22.234 C78.848,21.6446637 79.051998,21.146002 79.46,20.738 C79.868002,20.329998 80.3609971,20.126 80.939,20.126 C81.5170029,20.126 82.009998,20.329998 82.418,20.738 C82.826002,21.146002 83.03,21.6446637 83.03,22.234 C83.03,22.8233363 82.826002,23.321998 82.418,23.73 C82.009998,24.138002 81.5113363,24.342 80.922,24.342 Z M79.358,46 L79.358,27.334 L82.452,27.334 L82.452,46 L79.358,46 Z M92.672,43.484 L95.222,43.484 L95.222,46 L92.094,46 C88.8526505,46 87.232,44.402016 87.232,41.206 L87.232,29.85 L84.818,29.85 L84.818,27.334 L87.232,27.334 L87.232,22.71 L90.36,22.71 L90.36,27.334 L95.188,27.334 L95.188,29.85 L90.36,29.85 L90.36,41.206 C90.36,42.0446709 90.5299983,42.6339983 90.87,42.974 C91.2100017,43.3140017 91.8106624,43.484 92.672,43.484 Z M98.914,43.654 C97.2366583,41.8859912 96.398,39.5570144 96.398,36.667 C96.398,33.7769855 97.2366583,31.4480088 98.914,29.68 C100.591342,27.9119912 102.76732,27.028 105.442,27.028 C107.686011,27.028 109.516326,27.5493281 110.933,28.592 C112.349674,29.6346719 113.341331,31.1193237 113.908,33.046 L110.576,33.046 C110.213332,31.9579946 109.590004,31.1080031 108.706,30.496 C107.821996,29.8839969 106.734006,29.578 105.442,29.578 C103.673991,29.578 102.251672,30.1956605 101.175,31.431 C100.098328,32.6663395 99.56,34.4116554 99.56,36.667 C99.56,38.9223446 100.098328,40.6676605 101.175,41.903 C102.251672,43.1383395 103.673991,43.756 105.442,43.756 C108.094013,43.756 109.805329,42.6000116 110.576,40.288 L113.908,40.288 C113.341331,42.1240092 112.338341,43.5859946 110.899,44.674 C109.459659,45.7620054 107.640678,46.306 105.442,46.306 C102.76732,46.306 100.591342,45.4220088 98.914,43.654 Z M129.517,41.869 C130.797673,40.6109937 131.438,38.8713444 131.438,36.65 C131.438,34.4286556 130.826006,32.6946729 129.602,31.448 C128.377994,30.2013271 126.887675,29.578 125.131,29.578 C123.374325,29.578 121.906673,30.2013271 120.728,31.448 C119.549327,32.6946729 118.96,34.4343222 118.96,36.667 C118.96,38.8996778 119.526661,40.6393271 120.66,41.886 C121.793339,43.1326729 123.232658,43.756 124.978,43.756 C126.723342,43.756 128.236327,43.1270063 129.517,41.869 Z M115.798,36.684 C115.798,33.8053189 116.693324,31.4763422 118.484,29.697 C120.274676,27.9176578 122.518653,27.028 125.216,27.028 C127.913347,27.028 130.157324,27.9176578 131.948,29.697 C133.738676,31.4763422 134.634,33.7996523 134.634,36.667 C134.634,39.5343477 133.699009,41.8576578 131.829,43.637 C129.958991,45.4163422 127.675347,46.306 124.978,46.306 C122.280653,46.306 120.076342,45.4220088 118.365,43.654 C116.653658,41.8859912 115.798,39.5626811 115.798,36.684 Z M139.074,24.342 C138.484664,24.342 137.991669,24.138002 137.595,23.73 C137.198331,23.321998 137,22.8233363 137,22.234 C137,21.6446637 137.203998,21.146002 137.612,20.738 C138.020002,20.329998 138.512997,20.126 139.091,20.126 C139.669003,20.126 140.161998,20.329998 140.57,20.738 C140.978002,21.146002 141.182,21.6446637 141.182,22.234 C141.182,22.8233363 140.978002,23.321998 140.57,23.73 C140.161998,24.138002 139.663336,24.342 139.074,24.342 Z M137.51,46 L137.51,27.334 L140.604,27.334 L140.604,46 L137.51,46 Z M147.798,27.334 L147.798,30.36 C149.06734,28.1386556 151.095986,27.028 153.884,27.028 C155.946677,27.028 157.669326,27.7136598 159.052,29.085 C160.434674,30.4563402 161.126,32.4113206 161.126,34.95 L161.126,46 L158.066,46 L158.066,35.46 C158.066,33.5786573 157.612671,32.1506715 156.706,31.176 C155.799329,30.2013285 154.547008,29.714 152.949,29.714 C151.350992,29.714 150.093005,30.2013285 149.175,31.176 C148.256995,32.1506715 147.798,33.5786573 147.798,35.46 L147.798,46 L144.704,46 L144.704,27.334 L147.798,27.334 Z" id="Bitcoin" fill="#FFFFFF"></path>
                <path d="M58.974,16.684 C58.0219952,15.750662 57.546,14.5676738 57.546,13.135 C57.546,11.7023262 58.0219952,10.5216713 58.974,9.593 C59.9260048,8.66432869 61.0973264,8.2 62.488,8.2 C63.496005,8.2 64.3943294,8.43799762 65.183,8.914 C65.9716706,9.39000238 66.5526648,10.0759955 66.926,10.972 L65.386,10.972 C64.8073304,9.87999454 63.8413401,9.334 62.488,9.334 C61.4333281,9.334 60.5630034,9.68166319 59.877,10.377 C59.1909966,11.0723368 58.848,11.9939943 58.848,13.142 C58.848,14.2900057 59.1909966,15.2139965 59.877,15.914 C60.5630034,16.6140035 61.4169949,16.964 62.439,16.964 C63.4610051,16.964 64.2823302,16.6746696 64.903,16.096 C65.5236698,15.5173304 65.8853328,14.7333383 65.988,13.744 L61.984,13.744 L61.984,12.736 L67.332,12.736 L67.332,13.744 C67.2013327,14.9946729 66.6833379,16.0306626 65.778,16.852 C64.8726621,17.6733374 63.75034,18.084 62.411,18.084 C61.07166,18.084 59.9260048,17.617338 58.974,16.684 Z M73.346,10.314 L74.62,10.314 L74.62,18 L73.346,18 L73.346,16.768 C72.8326641,17.6733379 71.9973391,18.126 70.84,18.126 C69.9906624,18.126 69.2813362,17.8436695 68.712,17.279 C68.1426638,16.7143305 67.858,15.9140052 67.858,14.878 L67.858,10.314 L69.118,10.314 L69.118,14.668 C69.118,15.4333372 69.3069981,16.018998 69.685,16.425 C70.0630019,16.831002 70.5786634,17.034 71.232,17.034 C71.8853366,17.034 72.4009981,16.831002 72.779,16.425 C73.1570019,16.018998 73.346,15.4333372 73.346,14.668 L73.346,10.314 Z M76.364,9.082 C76.1213321,9.082 75.9183341,8.99800084 75.755,8.83 C75.5916658,8.66199916 75.51,8.45666788 75.51,8.214 C75.51,7.97133212 75.5939992,7.76600084 75.762,7.598 C75.9300008,7.42999916 76.1329988,7.346 76.371,7.346 C76.6090012,7.346 76.8119992,7.42999916 76.98,7.598 C77.1480008,7.76600084 77.232,7.97133212 77.232,8.214 C77.232,8.45666788 77.1480008,8.66199916 76.98,8.83 C76.8119992,8.99800084 76.6066679,9.082 76.364,9.082 Z M75.72,18 L75.72,10.314 L76.994,10.314 L76.994,18 L75.72,18 Z M84.086,14.164 C84.086,13.2959957 83.8316692,12.6006693 83.323,12.078 C82.8143308,11.5553307 82.2030036,11.294 81.489,11.294 C80.7749964,11.294 80.1636692,11.5459975 79.655,12.05 C79.1463308,12.5540025 78.892,13.2399957 78.892,14.108 C78.892,14.9760043 79.1486641,15.680664 79.662,16.222 C80.1753359,16.763336 80.7866631,17.034 81.496,17.034 C82.2053369,17.034 82.8143308,16.7726693 83.323,16.25 C83.8316692,15.7273307 84.086,15.0320043 84.086,14.164 Z M78.64,16.999 C77.9399965,16.2476629 77.59,15.2863392 77.59,14.115 C77.59,12.9436608 77.9376632,11.9963369 78.633,11.273 C79.3283368,10.549663 80.2033281,10.188 81.258,10.188 C81.9113366,10.188 82.4829975,10.3419985 82.973,10.65 C83.4630025,10.9580015 83.8339987,11.3593309 84.086,11.854 L84.086,10.314 L85.374,10.314 L85.374,18 L84.086,18 L84.086,16.432 C83.8339987,16.9360025 83.4630025,17.3443318 82.973,17.657 C82.4829975,17.9696682 81.9113366,18.126 81.258,18.126 C80.2126614,18.126 79.3400035,17.7503371 78.64,16.999 Z M90.948,17.02 L92.74,17.02 C93.9626728,17.02 94.8959968,16.6840034 95.54,16.012 C96.1840032,15.3399966 96.506,14.402006 96.506,13.198 C96.506,11.993994 96.1840032,11.0560034 95.54,10.384 C94.8959968,9.71199664 93.9626728,9.376 92.74,9.376 L90.948,9.376 L90.948,17.02 Z M92.74,8.298 C94.3080078,8.298 95.5446621,8.73666228 96.45,9.614 C97.3553379,10.4913377 97.808,11.6859924 97.808,13.198 C97.808,14.7100076 97.3553379,15.8883291 96.45,16.733 C95.5446621,17.5776709 94.3080078,18 92.74,18 L89.674,18 L89.674,8.298 L92.74,8.298 Z M103.563,16.299 C104.090336,15.7809974 104.354,15.0646712 104.354,14.15 C104.354,13.2353288 104.102003,12.5213359 103.598,12.008 C103.093997,11.4946641 102.480337,11.238 101.757,11.238 C101.033663,11.238 100.429336,11.4946641 99.944,12.008 C99.4586642,12.5213359 99.216,13.2376621 99.216,14.157 C99.216,15.0763379 99.449331,15.7926641 99.916,16.306 C100.382669,16.8193359 100.97533,17.076 101.694,17.076 C102.41267,17.076 103.035664,16.8170026 103.563,16.299 Z M97.914,14.164 C97.914,12.9786607 98.282663,12.0196703 99.02,11.287 C99.757337,10.5543297 100.681328,10.188 101.792,10.188 C102.902672,10.188 103.826663,10.5543297 104.564,11.287 C105.301337,12.0196703 105.67,12.9763274 105.67,14.157 C105.67,15.3376726 105.285004,16.2943297 104.515,17.027 C103.744996,17.7596703 102.804672,18.126 101.694,18.126 C100.583328,18.126 99.6756702,17.7620036 98.971,17.034 C98.2663298,16.3059964 97.914,15.3493393 97.914,14.164 Z" id="Guia-Do" fill="#FFFFFF"></path>
                <path d="M19.707841,51.2218511 C5.78246144,47.7492436 -2.6953051,33.6410646 0.778523323,19.7132597 C4.24991398,5.78301737 18.3589392,-2.69456495 32.2867566,0.778042569 C46.2178243,4.25065009 54.6947783,18.3604541 51.2217625,32.2898839 C47.7495592,46.2185013 33.6397214,54.6944586 19.707841,51.2218511 Z" id="Shape" fill="#F9BE3F" fill-rule="nonzero"></path>
                <path d="M36.5825,23.5026325 C37.0595,20.3000342 34.628,18.5783932 31.30325,17.4298803 L32.38175,13.0915556 L29.74775,12.4334359 L28.69775,16.6574359 C28.00625,16.4844444 27.29525,16.3212308 26.58875,16.1595214 L27.64625,11.9076923 L25.0145,11.2495726 L23.93525,15.5863932 C23.36225,15.4555214 22.79975,15.3261538 22.25375,15.1900171 L22.25675,15.1764786 L18.62525,14.2671453 L17.92475,17.0876581 C17.92475,17.0876581 19.8785,17.5366838 19.83725,17.5645128 C20.90375,17.8315214 21.09725,18.5392821 21.06425,19.1003761 L19.83575,24.0426667 C19.90925,24.0614701 20.0045,24.088547 20.1095,24.1306667 L19.832,24.0614701 L18.10925,30.9848889 C17.97875,31.309812 17.648,31.7971966 16.9025,31.6121709 C16.92875,31.6505299 14.9885,31.1330598 14.9885,31.1330598 L13.68125,34.1566496 L17.10875,35.0133333 C17.74625,35.1735385 18.371,35.341265 18.98525,35.4992137 L17.8955,39.8879316 L20.52575,40.5460513 L21.60575,36.2047179 C22.3235,36.4002735 23.021,36.5807863 23.7035,36.7507692 L22.628,41.0717949 L25.26125,41.7299145 L26.351,37.3502222 C30.84125,38.2023932 34.2185,37.8586667 35.63825,33.7865983 C36.7835,30.5072821 35.582,28.6156581 33.2195,27.3814017 C34.94,26.9820171 36.236,25.8470427 36.58175,23.5026325 L36.5825,23.5026325 Z M30.56525,31.9634188 C29.75075,35.242735 24.24575,33.4707009 22.46,33.0254359 L23.906,27.2121709 C25.691,27.6589402 31.41425,28.543453 30.566,31.9634188 L30.56525,31.9634188 Z M31.379,23.4552479 C30.6365,26.4382222 26.054,24.9226667 24.56675,24.5511111 L25.87775,19.2786325 C27.365,19.650188 32.153,20.3436581 31.379,23.4552479 L31.379,23.4552479 Z" id="Shape" fill="#1B1B1B" fill-rule="nonzero"></path>
            </g>
        </g>
    </g>
</svg>