<?xml version="1.0" encoding="utf-8"?>
<!-- Generator: Adobe Illustrator 21.1.0, SVG Export Plug-In . SVG Version: 6.00 Build 0)  -->
<svg version="1.1" id="Layer_1" xmlns="http://www.w3.org/2000/svg" xmlns:xlink="http://www.w3.org/1999/xlink" x="0px" y="0px"
	 width="192.9px" height="45px" viewBox="0 0 192.9 45" style="enable-background:new 0 0 192.9 45;" xml:space="preserve">
<style type="text/css">
	.st0{fill:#1891C3;}
	.st1{fill:#BF6F26;}
	.st2{fill:#167B93;}
	.st3{fill:#C1C1C1;}
	.st4{fill:#FFFFFF;}
</style>
<g>
	<path class="st0" d="M57.3,17.6h-5.2v-2.8c4.7,0,8.7,0,13.4,0v2.8h-5.2v13.5h-3.1V17.6z"/>
	<path class="st0" d="M83.2,23.1c0,4.2-2.6,8.4-8.4,8.4c-5.7,0-8.4-4.1-8.4-8.4c0-4.3,2.7-8.6,8.4-8.6
		C80.4,14.5,83.2,18.8,83.2,23.1z M69.5,23.2c0.1,2.7,1.5,5.5,5.4,5.5c3.8,0,5.3-2.9,5.3-5.6c0-2.7-1.5-5.8-5.3-5.8
		C71,17.3,69.4,20.4,69.5,23.2z"/>
	<path class="st0" d="M98.3,14.9L91,22.7l7.8,8.2v0.2h-3.8l-6.8-7.2v7.2h-3.1V14.8h3.1v6.9l6.2-6.9L98.3,14.9L98.3,14.9z"/>
	<path class="st0" d="M112.3,31.1h-12.2c0-5.4,0-10.9,0-16.3h12.2v3h-9.1v3.7h8.8v2.9h-8.8v3.7h9.1V31.1z"/>
	<path class="st0" d="M125.7,14.8h3.1v16.3h-1.9v0l-8.6-11v11h-3.1V14.8h2.5l8,10.1V14.8z"/>
	<path class="st0" d="M139,26.3h-4.6v4.8h-3.1V14.8c2.6,0,5.1,0,7.7,0C147,14.8,147,26.3,139,26.3z M134.4,23.5h4.6
		c3.9,0,3.9-5.8,0-5.8h-4.6V23.5z"/>
	<path class="st0" d="M162.8,23.1c0,4.2-2.6,8.4-8.4,8.4s-8.4-4.1-8.4-8.4c0-4.3,2.7-8.6,8.4-8.6C160.1,14.5,162.9,18.8,162.8,23.1z
		 M149.1,23.2c0.1,2.7,1.5,5.5,5.4,5.5c3.8,0,5.3-2.9,5.3-5.6c0-2.7-1.5-5.8-5.3-5.8C150.6,17.3,149.1,20.4,149.1,23.2z"/>
	<path class="st0" d="M175.4,18.8c-0.6-0.9-2.1-1.8-3.9-1.8c-2.3,0-3.4,1-3.4,2.2c0,1.4,1.7,1.8,3.6,2c3.4,0.4,6.6,1.3,6.6,5.2
		c0,3.6-3.2,5.2-6.8,5.2c-3.3,0-5.9-1-7.1-4l2.6-1.3c0.7,1.8,2.6,2.6,4.6,2.6c1.9,0,3.7-0.7,3.7-2.4c0-1.5-1.6-2.2-3.8-2.4
		c-3.3-0.4-6.4-1.3-6.4-4.9c0-3.4,3.3-4.7,6.3-4.8c2.5,0,5.2,0.7,6.4,3.2L175.4,18.8z"/>
	<path class="st0" d="M184.7,17.6h-5.2v-2.8c4.7,0,8.7,0,13.4,0v2.8h-5.2v13.5h-3.1V17.6z"/>
</g>
<circle class="st1" cx="22.5" cy="22.5" r="22.5"/>
<g>
	<path class="st2" d="M5.5,13.3l-2.7-1.6c-0.4,0.8-0.8,1.7-1.2,2.6l3,1.1C4.8,14.7,5.1,14,5.5,13.3z"/>
	<path class="st2" d="M15.4,4.5l-1.1-3c-0.9,0.3-1.7,0.7-2.6,1.2l1.6,2.7C14,5.1,14.7,4.8,15.4,4.5z"/>
	<path class="st2" d="M7.3,10.5l-2.4-2C4.3,9.2,3.8,10,3.3,10.8L6,12.3C6.4,11.7,6.9,11.1,7.3,10.5z"/>
	<path class="st2" d="M12.3,6l-1.6-2.7c-0.8,0.5-1.6,1-2.3,1.6l2,2.4C11.1,6.9,11.7,6.4,12.3,6z"/>
	<path class="st2" d="M3.3,19.7l-3.1-0.5C0.1,20.1,0,21,0,21.9h3.1C3.2,21.2,3.2,20.4,3.3,19.7z"/>
	<path class="st2" d="M4.1,16.4l-3-1.1c-0.3,0.9-0.5,1.8-0.7,2.7l3.1,0.5C3.7,17.8,3.9,17.1,4.1,16.4z"/>
	<path class="st2" d="M8,35.4l-2.4,2c0.6,0.7,1.3,1.4,2,2l2-2.4C9.1,36.5,8.5,35.9,8,35.4z"/>
	<path class="st2" d="M10.5,37.7l-2,2.4c0.7,0.6,1.5,1.1,2.3,1.6l1.6-2.7C11.7,38.6,11.1,38.1,10.5,37.7z"/>
	<path class="st2" d="M3.5,26.4L0.4,27c0.2,0.9,0.4,1.8,0.7,2.7l3-1.1C3.9,27.9,3.7,27.2,3.5,26.4z"/>
	<path class="st2" d="M4.5,29.6l-3,1.1c0.3,0.9,0.7,1.7,1.2,2.6l2.7-1.6C5.1,31,4.8,30.3,4.5,29.6z"/>
	<path class="st2" d="M3.2,23.1H0c0,1,0.1,1.9,0.2,2.8l3.1-0.5C3.2,24.6,3.2,23.8,3.2,23.1z"/>
	<path class="st2" d="M6,32.7l-2.7,1.6c0.5,0.8,1,1.6,1.6,2.3l2.4-2C6.9,33.9,6.4,33.3,6,32.7z"/>
	<path class="st2" d="M37,9.6l2.4-2c-0.6-0.7-1.3-1.4-2-2l-2,2.4C35.9,8.5,36.5,9.1,37,9.6z"/>
	<path class="st2" d="M40.5,15.4l3-1.1c-0.3-0.9-0.7-1.7-1.2-2.6l-2.7,1.6C39.9,14,40.2,14.7,40.5,15.4z"/>
	<path class="st2" d="M39,12.3l2.7-1.6c-0.5-0.8-1-1.6-1.6-2.3l-2.4,2C38.1,11.1,38.6,11.7,39,12.3z"/>
	<path class="st2" d="M41.8,21.9H45c0-1-0.1-1.9-0.2-2.8l-3.1,0.5C41.8,20.4,41.8,21.2,41.8,21.9z"/>
	<path class="st2" d="M41.5,18.6l3.1-0.5c-0.2-0.9-0.4-1.8-0.7-2.7l-3,1.1C41.1,17.1,41.3,17.8,41.5,18.6z"/>
	<path class="st2" d="M25.3,3.3l0.5-3.1C24.9,0.1,24,0,23.1,0v3.1C23.8,3.2,24.6,3.2,25.3,3.3z"/>
	<path class="st2" d="M18.6,3.5L18,0.4c-0.9,0.2-1.8,0.4-2.7,0.7l1.1,3C17.1,3.9,17.8,3.7,18.6,3.5z"/>
	<path class="st2" d="M34.5,7.3l2-2.4c-0.7-0.6-1.5-1.1-2.3-1.6L32.7,6C33.3,6.4,33.9,6.9,34.5,7.3z"/>
	<path class="st2" d="M21.9,3.2V0c-1,0-1.9,0.1-2.8,0.2l0.5,3.1C20.4,3.2,21.2,3.2,21.9,3.2z"/>
	<path class="st2" d="M28.6,4.1l1.1-3c-0.9-0.3-1.8-0.5-2.7-0.7l-0.5,3.1C27.2,3.7,27.9,3.9,28.6,4.1z"/>
	<path class="st2" d="M31.7,5.5l1.6-2.7c-0.8-0.4-1.7-0.8-2.6-1.2l-1.1,3C30.3,4.8,31,5.1,31.7,5.5z"/>
	<path class="st2" d="M9.6,8l-2-2.4c-0.7,0.6-1.4,1.3-2,2l2.4,2C8.5,9.1,9.1,8.5,9.6,8z"/>
	<path class="st2" d="M35.4,37l2,2.4c0.7-0.6,1.4-1.3,2-2l-2.4-2C36.5,35.9,35.9,36.5,35.4,37z"/>
	<path class="st2" d="M29.6,40.5l1.1,3c0.9-0.3,1.7-0.7,2.6-1.2l-1.6-2.7C31,39.9,30.3,40.2,29.6,40.5z"/>
	<path class="st2" d="M19.7,41.7l-0.5,3.1c0.9,0.1,1.9,0.2,2.8,0.2v-3.1C21.2,41.8,20.4,41.8,19.7,41.7z"/>
	<path class="st2" d="M26.4,41.5l0.5,3.1c0.9-0.2,1.8-0.4,2.7-0.7l-1.1-3C27.9,41.1,27.2,41.3,26.4,41.5z"/>
	<path class="st2" d="M32.7,39l1.6,2.7c0.8-0.5,1.6-1,2.3-1.6l-2-2.4C33.9,38.1,33.3,38.6,32.7,39z"/>
	<path class="st2" d="M37.7,34.5l2.4,2c0.6-0.7,1.1-1.5,1.6-2.3L39,32.7C38.6,33.3,38.1,33.9,37.7,34.5z"/>
	<path class="st2" d="M40.9,28.6l3,1.1c0.3-0.9,0.5-1.8,0.7-2.7l-3.1-0.5C41.3,27.2,41.1,27.9,40.9,28.6z"/>
	<path class="st2" d="M41.8,23.1c0,0.8-0.1,1.5-0.2,2.3l3.1,0.5c0.1-0.9,0.2-1.9,0.2-2.8H41.8z"/>
	<path class="st2" d="M39.5,31.7l2.7,1.6c0.4-0.8,0.8-1.7,1.2-2.6l-3-1.1C40.2,30.3,39.9,31,39.5,31.7z"/>
	<path class="st2" d="M23.1,41.8V45c1,0,1.9-0.1,2.8-0.2l-0.5-3.1C24.6,41.8,23.8,41.8,23.1,41.8z"/>
	<path class="st2" d="M16.4,40.9l-1.1,3c0.9,0.3,1.8,0.5,2.7,0.7l0.5-3.1C17.8,41.3,17.1,41.1,16.4,40.9z"/>
	<path class="st2" d="M13.3,39.5l-1.6,2.7c0.8,0.4,1.7,0.8,2.6,1.2l1.1-3C14.7,40.2,14,39.9,13.3,39.5z"/>
</g>
<path class="st0" d="M45,23.1c0-0.2,0-0.4,0-0.6c0-0.2,0-0.4,0-0.6h-3.1c0-0.8-0.1-1.5-0.2-2.3l3.1-0.5c-0.1-0.4-0.1-0.7-0.2-1.1
	l-3.1,0.5c-0.2-0.7-0.4-1.5-0.6-2.2l3-1.1c-0.1-0.4-0.2-0.7-0.4-1l-3,1.1c-0.3-0.7-0.6-1.4-1-2.1l2.7-1.6c-0.2-0.3-0.4-0.6-0.6-1
	L39,12.3c-0.4-0.6-0.8-1.3-1.3-1.9l2.4-2c-0.2-0.3-0.5-0.6-0.7-0.8l-2.4,2c-0.5-0.6-1-1.1-1.6-1.6l2-2.4c-0.3-0.2-0.6-0.5-0.8-0.7
	l-2,2.4c-0.6-0.5-1.2-0.9-1.9-1.3l1.6-2.7c-0.3-0.2-0.6-0.4-1-0.6l-1.6,2.7c-0.7-0.4-1.4-0.7-2.1-1l1.1-3c-0.3-0.1-0.7-0.3-1-0.4
	l-1.1,3c-0.7-0.2-1.4-0.4-2.2-0.6L27,0.4c-0.4-0.1-0.7-0.1-1.1-0.2l-0.5,3.1c-0.7-0.1-1.5-0.2-2.3-0.2V0c-0.2,0-0.4,0-0.6,0
	c-0.2,0-0.4,0-0.6,0v3.1c-0.8,0-1.5,0.1-2.3,0.2l-0.5-3.1c-0.4,0.1-0.7,0.1-1.1,0.2l0.5,3.1c-0.7,0.2-1.5,0.4-2.2,0.6l-1.1-3
	c-0.4,0.1-0.7,0.2-1,0.4l1.1,3c-0.7,0.3-1.4,0.6-2.1,1l-1.6-2.7c-0.3,0.2-0.6,0.4-1,0.6L12.3,6c-0.6,0.4-1.3,0.8-1.9,1.3l-2-2.4
	C8.2,5.1,7.9,5.4,7.6,5.6l2,2.4C9.1,8.5,8.5,9.1,8,9.6l-2.4-2C5.4,7.9,5.1,8.2,4.9,8.5l2.4,2c-0.5,0.6-0.9,1.2-1.3,1.9l-2.7-1.6
	c-0.2,0.3-0.4,0.6-0.6,1l2.7,1.6c-0.4,0.7-0.7,1.4-1,2.1l-3-1.1c-0.1,0.3-0.3,0.7-0.4,1l3,1.1c-0.2,0.7-0.4,1.4-0.6,2.2L0.4,18
	c-0.1,0.4-0.1,0.7-0.2,1.1l3.1,0.5c-0.1,0.7-0.2,1.5-0.2,2.3H0c0,0.2,0,0.4,0,0.6c0,0.2,0,0.4,0,0.6h3.1c0,0.8,0.1,1.5,0.2,2.3
	l-3.1,0.5c0.1,0.4,0.1,0.7,0.2,1.1l3.1-0.5c0.2,0.7,0.4,1.5,0.6,2.2l-3,1.1c0.1,0.4,0.2,0.7,0.4,1l3-1.1c0.3,0.7,0.6,1.4,1,2.1
	l-2.7,1.6c0.2,0.3,0.4,0.6,0.6,1L6,32.7c0.4,0.6,0.8,1.3,1.3,1.9l-2.4,2c0.2,0.3,0.5,0.6,0.7,0.8l2.4-2c0.5,0.6,1,1.1,1.6,1.6
	l-2,2.4c0.3,0.2,0.6,0.5,0.8,0.7l2-2.4c0.6,0.5,1.2,0.9,1.9,1.3l-1.6,2.7c0.3,0.2,0.6,0.4,1,0.6l1.6-2.7c0.7,0.4,1.4,0.7,2.1,1
	l-1.1,3c0.3,0.1,0.7,0.3,1,0.4l1.1-3c0.7,0.2,1.4,0.4,2.2,0.6L18,44.6c0.4,0.1,0.7,0.1,1.1,0.2l0.5-3.1c0.7,0.1,1.5,0.2,2.3,0.2V45
	c0.2,0,0.4,0,0.6,0c0.2,0,0.4,0,0.6,0v-3.1c0.8,0,1.5-0.1,2.3-0.2l0.5,3.1c0.4-0.1,0.7-0.1,1.1-0.2l-0.5-3.1
	c0.7-0.2,1.5-0.4,2.2-0.6l1.1,3c0.4-0.1,0.7-0.2,1-0.4l-1.1-3c0.7-0.3,1.4-0.6,2.1-1l1.6,2.7c0.3-0.2,0.6-0.4,1-0.6L32.7,39
	c0.6-0.4,1.3-0.8,1.9-1.3l2,2.4c0.3-0.2,0.6-0.5,0.8-0.7l-2-2.4c0.6-0.5,1.1-1,1.6-1.6l2.4,2c0.2-0.3,0.5-0.6,0.7-0.8l-2.4-2
	c0.5-0.6,0.9-1.2,1.3-1.9l2.7,1.6c0.2-0.3,0.4-0.6,0.6-1l-2.7-1.6c0.4-0.7,0.7-1.4,1-2.1l3,1.1c0.1-0.3,0.3-0.7,0.4-1l-3-1.1
	c0.2-0.7,0.4-1.4,0.6-2.2l3.1,0.5c0.1-0.4,0.1-0.7,0.2-1.1l-3.1-0.5c0.1-0.7,0.2-1.5,0.2-2.3H45z"/>
<path class="st3" d="M37.8,16.6c-1.3-2-3-2.6-4.7-2.6c1,2.6,0.8,5.7-4.8,7.3l-2,0.6l2.5,4.5C35.1,25.7,38.5,20.9,37.8,16.6z"/>
<path class="st4" d="M14.9,31.7v-16c0-0.6,0.6-0.9,1.4-0.5l3.7,1.6c0.8,0.3,1.4,1.1,1.4,1.7v16c0,0.6-0.6,0.9-1.4,0.5l-3.7-1.6
	C15.6,33.1,14.9,32.3,14.9,31.7z"/>
<path class="st4" d="M22.8,27.7v-16c0-0.6,0.6-0.9,1.4-0.5l3.7,1.6c0.8,0.3,1.4,1.1,1.4,1.7v16c0,0.6-0.6,0.9-1.4,0.5l-3.7-1.6
	C23.4,29.1,22.8,28.3,22.8,27.7z"/>
<path class="st4" d="M28.9,15.3l-15.4,7.2c-0.6,0.3-1.7,0.1-2.4-0.4l-3.4-2.4c-0.7-0.5-0.8-1.1-0.2-1.4l15.4-7.2
	c0.6-0.3,1.7-0.1,2.4,0.4l3.4,2.4C29.4,14.4,29.5,15,28.9,15.3z"/>
<path class="st4" d="M34.9,11.9c-1.4-1.2-3-1.7-4.5-1.9c-4.8-0.6-9.5,2.2-9.5,2.2l3.1,5.5l3.7-2.2c0,0,2.6-1.6,5.4-1.5
	c1.7,0,3.5,0.7,4.7,2.6C37.5,14.9,36.6,13.2,34.9,11.9z"/>
<polygon class="st3" points="21.5,18.8 14.9,21.8 21.5,23.6 "/>
</svg>
